<mxfile host="app.diagrams.net" agent="Mozilla/5.0 (Windows NT 10.0; Win64; x64; rv:137.0) Gecko/20100101 Firefox/137.0" version="26.2.14" pages="2">
  <diagram name="Page-1" id="KZF8nSdD4FeOs1GV-kFl">
    <mxGraphModel dx="1226" dy="1762" grid="1" gridSize="10" guides="1" tooltips="1" connect="1" arrows="1" fold="1" page="1" pageScale="1" pageWidth="850" pageHeight="1100" background="light-dark(#FFFFFF,#000000)" math="0" shadow="0" adaptiveColors="auto">
      <root>
        <mxCell id="0" />
        <mxCell id="1" parent="0" />
        <mxCell id="c2FdeN_dxvbNyN5L3kbx-12" style="edgeStyle=orthogonalEdgeStyle;rounded=0;orthogonalLoop=1;jettySize=auto;html=1;flowAnimation=1;" edge="1" parent="1" source="c2FdeN_dxvbNyN5L3kbx-1" target="c2FdeN_dxvbNyN5L3kbx-2">
          <mxGeometry relative="1" as="geometry" />
        </mxCell>
        <mxCell id="c2FdeN_dxvbNyN5L3kbx-1" value="Transaction producer" style="whiteSpace=wrap;html=1;aspect=fixed;rounded=1;fillColor=#d5e8d4;strokeColor=#82b366;gradientColor=#97d077;" vertex="1" parent="1">
          <mxGeometry x="258" y="-901" width="80" height="80" as="geometry" />
        </mxCell>
        <mxCell id="c2FdeN_dxvbNyN5L3kbx-11" style="edgeStyle=orthogonalEdgeStyle;rounded=0;orthogonalLoop=1;jettySize=auto;html=1;" edge="1" parent="1" source="c2FdeN_dxvbNyN5L3kbx-2" target="c2FdeN_dxvbNyN5L3kbx-4">
          <mxGeometry relative="1" as="geometry" />
        </mxCell>
        <mxCell id="c2FdeN_dxvbNyN5L3kbx-17" style="edgeStyle=orthogonalEdgeStyle;rounded=0;orthogonalLoop=1;jettySize=auto;html=1;flowAnimation=1;" edge="1" parent="1" source="c2FdeN_dxvbNyN5L3kbx-2" target="c2FdeN_dxvbNyN5L3kbx-7">
          <mxGeometry relative="1" as="geometry" />
        </mxCell>
        <mxCell id="c2FdeN_dxvbNyN5L3kbx-2" value="Central messaging bus (kafka)" style="rounded=0;whiteSpace=wrap;html=1;fillColor=#76608a;fontColor=#ffffff;strokeColor=#432D57;" vertex="1" parent="1">
          <mxGeometry x="366" y="-741" width="120" height="60" as="geometry" />
        </mxCell>
        <mxCell id="c2FdeN_dxvbNyN5L3kbx-14" style="edgeStyle=orthogonalEdgeStyle;rounded=0;orthogonalLoop=1;jettySize=auto;html=1;flowAnimation=1;" edge="1" parent="1" source="c2FdeN_dxvbNyN5L3kbx-3" target="c2FdeN_dxvbNyN5L3kbx-6">
          <mxGeometry relative="1" as="geometry" />
        </mxCell>
        <mxCell id="c2FdeN_dxvbNyN5L3kbx-3" value="Rules based detection service" style="whiteSpace=wrap;html=1;aspect=fixed;rounded=1;fillColor=#d5e8d4;strokeColor=#82b366;gradientColor=#97d077;" vertex="1" parent="1">
          <mxGeometry x="581" y="-851" width="80" height="80" as="geometry" />
        </mxCell>
        <mxCell id="c2FdeN_dxvbNyN5L3kbx-8" style="edgeStyle=orthogonalEdgeStyle;rounded=0;orthogonalLoop=1;jettySize=auto;html=1;flowAnimation=1;" edge="1" parent="1" source="c2FdeN_dxvbNyN5L3kbx-4" target="c2FdeN_dxvbNyN5L3kbx-5">
          <mxGeometry relative="1" as="geometry" />
        </mxCell>
        <mxCell id="c2FdeN_dxvbNyN5L3kbx-10" style="edgeStyle=orthogonalEdgeStyle;rounded=0;orthogonalLoop=1;jettySize=auto;html=1;flowAnimation=1;" edge="1" parent="1" source="c2FdeN_dxvbNyN5L3kbx-4" target="c2FdeN_dxvbNyN5L3kbx-2">
          <mxGeometry relative="1" as="geometry" />
        </mxCell>
        <mxCell id="c2FdeN_dxvbNyN5L3kbx-4" value="Alerting service" style="whiteSpace=wrap;html=1;aspect=fixed;rounded=1;fillColor=#d5e8d4;strokeColor=#82b366;gradientColor=#97d077;" vertex="1" parent="1">
          <mxGeometry x="189" y="-761" width="80" height="80" as="geometry" />
        </mxCell>
        <mxCell id="c2FdeN_dxvbNyN5L3kbx-9" style="edgeStyle=orthogonalEdgeStyle;rounded=0;orthogonalLoop=1;jettySize=auto;html=1;flowAnimation=1;" edge="1" parent="1" source="c2FdeN_dxvbNyN5L3kbx-5" target="c2FdeN_dxvbNyN5L3kbx-4">
          <mxGeometry relative="1" as="geometry" />
        </mxCell>
        <mxCell id="c2FdeN_dxvbNyN5L3kbx-5" value="Alert db" style="shape=cylinder3;whiteSpace=wrap;html=1;boundedLbl=1;backgroundOutline=1;size=15;fillColor=#dae8fc;strokeColor=#6c8ebf;gradientColor=#7ea6e0;" vertex="1" parent="1">
          <mxGeometry x="91" y="-651" width="60" height="80" as="geometry" />
        </mxCell>
        <mxCell id="c2FdeN_dxvbNyN5L3kbx-15" style="edgeStyle=orthogonalEdgeStyle;rounded=0;orthogonalLoop=1;jettySize=auto;html=1;flowAnimation=1;" edge="1" parent="1" source="c2FdeN_dxvbNyN5L3kbx-6" target="c2FdeN_dxvbNyN5L3kbx-3">
          <mxGeometry relative="1" as="geometry" />
        </mxCell>
        <mxCell id="c2FdeN_dxvbNyN5L3kbx-6" value="Rules db" style="shape=cylinder3;whiteSpace=wrap;html=1;boundedLbl=1;backgroundOutline=1;size=15;fillColor=#dae8fc;strokeColor=#6c8ebf;gradientColor=#7ea6e0;" vertex="1" parent="1">
          <mxGeometry x="703" y="-941" width="60" height="80" as="geometry" />
        </mxCell>
        <mxCell id="c2FdeN_dxvbNyN5L3kbx-16" style="edgeStyle=orthogonalEdgeStyle;rounded=0;orthogonalLoop=1;jettySize=auto;html=1;flowAnimation=1;" edge="1" parent="1" source="c2FdeN_dxvbNyN5L3kbx-7" target="c2FdeN_dxvbNyN5L3kbx-2">
          <mxGeometry relative="1" as="geometry" />
        </mxCell>
        <mxCell id="c2FdeN_dxvbNyN5L3kbx-7" value="Machine learning detection service" style="whiteSpace=wrap;html=1;aspect=fixed;rounded=1;fillColor=#d5e8d4;strokeColor=#82b366;gradientColor=#97d077;" vertex="1" parent="1">
          <mxGeometry x="623" y="-651" width="80" height="80" as="geometry" />
        </mxCell>
        <mxCell id="c2FdeN_dxvbNyN5L3kbx-13" style="edgeStyle=orthogonalEdgeStyle;rounded=0;orthogonalLoop=1;jettySize=auto;html=1;flowAnimation=1;" edge="1" parent="1" source="c2FdeN_dxvbNyN5L3kbx-3" target="c2FdeN_dxvbNyN5L3kbx-2">
          <mxGeometry relative="1" as="geometry">
            <mxPoint x="471" y="-651" as="targetPoint" />
          </mxGeometry>
        </mxCell>
        <mxCell id="c2FdeN_dxvbNyN5L3kbx-18" value="&lt;h1&gt;Fraud Detection System&lt;/h1&gt;" style="text;html=1;align=center;verticalAlign=middle;resizable=0;points=[];autosize=1;fontStyle=1;fontSize=11;labelBackgroundColor=light-dark(#FFFFFF,#7048FF);" vertex="1" parent="1">
          <mxGeometry x="59" y="-1020" width="280" height="70" as="geometry" />
        </mxCell>
        <mxCell id="c2FdeN_dxvbNyN5L3kbx-19" value="&lt;h4&gt;&lt;i&gt;by&amp;nbsp;&lt;/i&gt;&lt;/h4&gt;&lt;h4&gt;&lt;i&gt;Anthony Mugabira&lt;/i&gt;&lt;/h4&gt;&lt;h4&gt;&lt;i&gt;www.mugabira.com&lt;/i&gt;&lt;/h4&gt;" style="text;html=1;align=center;verticalAlign=middle;resizable=0;points=[];autosize=1;strokeColor=none;fillColor=none;fontSize=10;" vertex="1" parent="1">
          <mxGeometry x="59" y="-961" width="120" height="100" as="geometry" />
        </mxCell>
      </root>
    </mxGraphModel>
  </diagram>
  <diagram id="aVj2pQ-lo7KmmcypBgPM" name="Page-2">
    <mxGraphModel grid="1" page="1" gridSize="10" guides="1" tooltips="1" connect="1" arrows="1" fold="1" pageScale="1" pageWidth="850" pageHeight="1100" math="0" shadow="0">
      <root>
        <mxCell id="0" />
        <mxCell id="1" parent="0" />
      </root>
    </mxGraphModel>
  </diagram>
</mxfile>
